<svg width="171" height="163" viewBox="0 0 171 163" fill="none" xmlns="http://www.w3.org/2000/svg">
    <path d="M170.557 61.5636C169.444 58.1212 166.391 55.6763 162.779 55.3508L113.712 50.8955L94.3096 5.48255C92.879 2.15437 89.6209 0 86.0009 0C82.3809 0 79.1227 2.15437 77.6921 5.49033L58.2898 50.8955L9.21537 55.3508C5.60962 55.6841 2.5642 58.1212 1.44486 61.5636C0.325523 65.0059 1.35926 68.7815 4.08691 71.1616L41.1755 103.689L30.2389 151.864C29.4387 155.406 30.8135 159.068 33.7526 161.192C35.3324 162.334 37.1806 162.915 39.0445 162.915C40.6515 162.915 42.2455 162.482 43.6762 161.626L86.0009 136.33L128.31 161.626C131.406 163.488 135.309 163.318 138.241 161.192C141.182 159.061 142.555 155.399 141.755 151.864L130.818 103.689L167.907 71.1681C170.635 68.7815 171.676 65.0124 170.557 61.5636Z" fill="#fff"/>
    <path d="M41.9999 161.992V52.2832L8.21576 55.3516C4.60932 55.6836 1.5644 58.1211 0.445257 61.5645C-0.67486 65.0059 0.359319 68.7812 3.08686 71.1621L40.1757 103.689L29.2392 151.863C28.4384 155.406 29.8134 159.068 32.7529 161.191C34.332 162.334 36.1806 162.914 38.0449 162.914C38.7206 162.914 39.3945 162.838 40.0546 162.686C40.7206 162.531 41.373 162.301 41.9999 161.992Z" fill="#FFC107"/>
</svg>
