<svg width="170" height="163" viewBox="0 0 170 163" fill="none" xmlns="http://www.w3.org/2000/svg">
    <path d="M169.557 61.5636C168.444 58.1212 165.391 55.6763 161.779 55.3508L112.712 50.8955L93.3096 5.48255C91.879 2.15437 88.6209 0 85.0009 0C81.3809 0 78.1227 2.15437 76.6921 5.49033L57.2898 50.8955L8.21537 55.3508C4.60962 55.6841 1.5642 58.1212 0.44486 61.5636C-0.674477 65.0059 0.359256 68.7815 3.08691 71.1616L40.1755 103.689L29.2389 151.864C28.4387 155.406 29.8135 159.068 32.7526 161.192C34.3324 162.334 36.1806 162.915 38.0445 162.915C39.6515 162.915 41.2455 162.482 42.6762 161.626L85.0009 136.33L127.31 161.626C130.406 163.488 134.309 163.318 137.241 161.192C140.182 159.061 141.555 155.399 140.755 151.864L129.818 103.689L166.907 71.1681C169.635 68.7815 170.676 65.0124 169.557 61.5636Z" fill="#fff"/>
    <path d="M85 136.33V0C81.3803 0.000342018 78.1226 2.15463 76.6921 5.49033L57.2898 50.8955L8.21537 55.3508C4.60962 55.6841 1.5642 58.1212 0.44486 61.5636C0.145421 62.4844 6.42298e-05 63.4291 0 64.3646V64.3659C0.000175839 66.9269 1.08927 69.4185 3.08691 71.1616L40.1755 103.689L29.2389 151.864C28.4387 155.406 29.8135 159.068 32.7526 161.192C34.3324 162.334 36.1806 162.915 38.0445 162.915C39.6515 162.915 41.2455 162.482 42.6762 161.626L85 136.33Z" fill="#FFC107"/>
</svg>
