<svg width="171" height="163" viewBox="0 0 171 163" fill="none" xmlns="http://www.w3.org/2000/svg">
    <path d="M0.44313 61.5636C1.55598 58.1212 4.60919 55.6763 8.22142 55.3508L57.2881 50.8955L76.6904 5.48255C78.121 2.15437 81.3791 0 84.9991 0C88.6191 0 91.8773 2.15437 93.3079 5.49033L112.71 50.8955L161.785 55.3508C165.39 55.6841 168.436 58.1212 169.555 61.5636C170.674 65.0059 169.641 68.7815 166.913 71.1616L129.825 103.689L140.761 151.864C141.561 155.406 140.186 159.068 137.247 161.192C135.668 162.334 133.819 162.915 131.956 162.915C130.349 162.915 128.754 162.482 127.324 161.626L84.9991 136.33L42.69 161.626C39.594 163.488 35.6912 163.318 32.7586 161.192C29.8183 159.061 28.4447 155.399 29.245 151.864L40.1815 103.689L3.09297 71.1681C0.365317 68.7815 -0.676207 65.0124 0.44313 61.5636Z" fill="#FFC107"/>
    <path d="M129 161.992V52.2832L162.784 55.3516C166.391 55.6836 169.436 58.1211 170.555 61.5645C171.675 65.0059 170.641 68.7812 167.913 71.1621L130.824 103.689L141.761 151.863C142.562 155.406 141.187 159.068 138.247 161.191C136.668 162.334 134.819 162.914 132.955 162.914C132.279 162.914 131.606 162.838 130.945 162.686C130.279 162.531 129.627 162.301 129 161.992Z" fill="#fff"/>
</svg>
